<?xml version="1.0" encoding="utf-8"?>
<!-- Generator: Adobe Illustrator 24.1.1, SVG Export Plug-In . SVG Version: 6.00 Build 0)  -->
<svg version="1.1" id="Layer_1" xmlns="http://www.w3.org/2000/svg" xmlns:xlink="http://www.w3.org/1999/xlink" x="0px" y="0px"
	 viewBox="0 0 512 512" style="enable-background:new 0 0 512 512;" xml:space="preserve">
<g>
	<path d="M256,25.6v25.6c56.6,0,107.7,22.9,144.8,60c37.1,37.1,60,88.2,60,144.8c0,56.6-22.9,107.7-60,144.8
		c-37.1,37.1-88.2,60-144.8,60c-56.6,0-107.7-22.9-144.8-60c-37.1-37.1-60-88.2-60-144.8c0-56.6,22.9-107.7,60-144.8
		c37.1-37.1,88.2-60,144.8-60V25.6V0C114.6,0,0,114.6,0,256c0,141.4,114.6,256,256,256c141.4,0,256-114.6,256-256
		C512,114.6,397.4,0,256,0V25.6z"/>
	<path d="M237.9,135.5L135.5,237.9c-10,10-10,26.2,0,36.2c10,10,26.2,10,36.2,0l102.4-102.4c10-10,10-26.2,0-36.2
		S247.9,125.5,237.9,135.5"/>
	<path d="M230.4,153.6v204.8c0,14.1,11.5,25.6,25.6,25.6c14.1,0,25.6-11.5,25.6-25.6V153.6c0-14.1-11.5-25.6-25.6-25.6
		C241.9,128,230.4,139.5,230.4,153.6"/>
	<path d="M376.5,237.9L274.1,135.5c-10-10-26.2-10-36.2,0s-10,26.2,0,36.2l102.4,102.4c10,10,26.2,10,36.2,0
		C386.5,264.1,386.5,247.9,376.5,237.9"/>
</g>
</svg>
